<svg preserveAspectRatio="none" width="100%" height="100%" overflow="visible" style="display: block;" viewBox="0 0 50 40.9538" fill="none" xmlns="http://www.w3.org/2000/svg">
<g id="Group">
<path id="Vector" d="M47.2651 27.77H50L46.4236 24.0533C41.3043 18.7238 34.2216 15.7083 26.7882 15.7083H25.9467H24.1234H23.2118C15.8485 15.7083 8.76578 18.7238 3.57644 24.0533L0 27.77H2.73492C10.0982 27.77 17.1809 24.7546 22.3703 19.425L25.0351 16.6901C23.4923 26.087 10.0982 40.9538 10.0982 40.9538H25.1052H40.1122C40.1122 40.9538 26.8583 26.2974 25.1753 16.9005L27.6297 19.4951C32.7489 24.7546 39.8317 27.77 47.2651 27.77Z" fill="var(--fill-0, black)"/>
<path id="Vector_2" d="M22.791 10.2384L24.9649 7.99441L27.1389 10.2384C31.3464 14.6564 37.237 17.1108 43.338 17.1108H45.5821L42.6368 14.0253C38.4292 9.60731 32.5386 7.15289 26.4376 7.15289H25.7363H24.1936H23.4923C17.3913 7.15289 11.5708 9.60731 7.29314 14.0253L4.34784 17.1809H6.59187C12.6929 17.1809 18.5835 14.6564 22.791 10.2384Z" fill="var(--fill-0, black)"/>
<path id="Vector_3" d="M23.2118 2.52454L24.9649 0.701262L26.7181 2.52454C30.1543 6.10098 34.9229 8.13464 39.9018 8.13464H41.7251L39.3408 5.6101C35.9046 2.03366 31.136 0 26.1571 0H25.5961H24.3338H23.7728C18.7938 0 14.0253 2.03366 10.5891 5.6101L8.20478 8.13464H10.0281C15.007 8.13464 19.7756 6.10098 23.2118 2.52454Z" fill="var(--fill-0, black)"/>
</g>
</svg>
