<svg preserveAspectRatio="none" width="100%" height="100%" overflow="visible" style="display: block;" viewBox="0 0 70 70" fill="none" xmlns="http://www.w3.org/2000/svg">
<path id="Star 5" d="M35 0L35.8012 22.7762L39.5684 0.299429L37.3899 22.9854L44.0587 1.1926L38.9376 23.4001L48.3939 2.66422L40.418 24.0133L52.5 4.68911L41.8057 24.8145L56.3066 7.23263L43.077 25.79L59.7487 10.2513L44.21 26.923L62.7674 13.6934L45.1855 28.1943L65.3109 17.5L45.9867 29.582L67.3358 21.6061L46.5999 31.0624L68.8074 25.9413L47.0146 32.6101L69.7006 30.4316L47.2238 34.1988L70 35L47.2238 35.8012L69.7006 39.5684L47.0146 37.3899L68.8074 44.0587L46.5999 38.9376L67.3358 48.3939L45.9867 40.418L65.3109 52.5L45.1855 41.8057L62.7674 56.3066L44.21 43.077L59.7487 59.7487L43.077 44.21L56.3066 62.7674L41.8057 45.1855L52.5 65.3109L40.418 45.9867L48.3939 67.3358L38.9376 46.5999L44.0587 68.8074L37.3899 47.0146L39.5684 69.7006L35.8012 47.2238L35 70L34.1988 47.2238L30.4316 69.7006L32.6101 47.0146L25.9413 68.8074L31.0624 46.5999L21.6061 67.3358L29.582 45.9867L17.5 65.3109L28.1943 45.1855L13.6934 62.7674L26.923 44.21L10.2513 59.7487L25.79 43.077L7.23263 56.3066L24.8145 41.8057L4.68911 52.5L24.0133 40.418L2.66422 48.3939L23.4001 38.9376L1.1926 44.0587L22.9854 37.3899L0.299429 39.5684L22.7762 35.8012L0 35L22.7762 34.1988L0.299429 30.4316L22.9854 32.6101L1.1926 25.9413L23.4001 31.0624L2.66422 21.6061L24.0133 29.582L4.68911 17.5L24.8145 28.1943L7.23263 13.6934L25.79 26.923L10.2513 10.2513L26.923 25.79L13.6934 7.23263L28.1943 24.8145L17.5 4.68911L29.582 24.0133L21.6061 2.66422L31.0624 23.4001L25.9413 1.1926L32.6101 22.9854L30.4316 0.299429L34.1988 22.7762L35 0Z" fill="url(#paint0_radial_0_4)"/>
<defs>
<radialGradient id="paint0_radial_0_4" cx="0" cy="0" r="1" gradientUnits="userSpaceOnUse" gradientTransform="translate(35 33.6875) rotate(81.3843) scale(43.8068)">
<stop stop-color="#0040EE"/>
<stop offset="1" stop-color="#275FF8" stop-opacity="0"/>
</radialGradient>
</defs>
</svg>
